<mxfile host="app.diagrams.net" modified="2024-03-21T03:36:01.250Z" agent="Mozilla/5.0 (Windows NT 10.0; Win64; x64) AppleWebKit/537.36 (KHTML, like Gecko) Chrome/122.0.0.0 Safari/537.36" etag="mseiCRk2qnekZ5G_2Gr8" version="23.1.3" type="github">
  <diagram name="페이지-1" id="C54wKdXJ9Yq_B1P9_qjg">
    <mxGraphModel dx="1723" dy="1932" grid="1" gridSize="10" guides="1" tooltips="1" connect="1" arrows="1" fold="1" page="1" pageScale="1" pageWidth="827" pageHeight="1169" math="0" shadow="0">
      <root>
        <mxCell id="0" />
        <mxCell id="1" parent="0" />
        <mxCell id="1bsByWwCVij_k4VHWiG3-3" value="" style="edgeStyle=orthogonalEdgeStyle;rounded=0;orthogonalLoop=1;jettySize=auto;html=1;" edge="1" parent="1" source="1bsByWwCVij_k4VHWiG3-1" target="1bsByWwCVij_k4VHWiG3-2">
          <mxGeometry relative="1" as="geometry">
            <Array as="points">
              <mxPoint x="160" y="30" />
            </Array>
          </mxGeometry>
        </mxCell>
        <mxCell id="1bsByWwCVij_k4VHWiG3-5" value="" style="edgeStyle=orthogonalEdgeStyle;rounded=0;orthogonalLoop=1;jettySize=auto;html=1;" edge="1" parent="1" source="1bsByWwCVij_k4VHWiG3-1" target="1bsByWwCVij_k4VHWiG3-4">
          <mxGeometry relative="1" as="geometry" />
        </mxCell>
        <mxCell id="1bsByWwCVij_k4VHWiG3-7" value="" style="edgeStyle=orthogonalEdgeStyle;rounded=0;orthogonalLoop=1;jettySize=auto;html=1;" edge="1" parent="1" source="1bsByWwCVij_k4VHWiG3-1" target="1bsByWwCVij_k4VHWiG3-6">
          <mxGeometry relative="1" as="geometry">
            <Array as="points">
              <mxPoint x="160" y="30" />
              <mxPoint x="160" y="265" />
            </Array>
          </mxGeometry>
        </mxCell>
        <mxCell id="1bsByWwCVij_k4VHWiG3-1" value="시작" style="rounded=1;whiteSpace=wrap;html=1;" vertex="1" parent="1">
          <mxGeometry width="120" height="60" as="geometry" />
        </mxCell>
        <mxCell id="1bsByWwCVij_k4VHWiG3-11" value="" style="edgeStyle=orthogonalEdgeStyle;rounded=0;orthogonalLoop=1;jettySize=auto;html=1;" edge="1" parent="1" source="1bsByWwCVij_k4VHWiG3-2" target="1bsByWwCVij_k4VHWiG3-10">
          <mxGeometry relative="1" as="geometry" />
        </mxCell>
        <mxCell id="1bsByWwCVij_k4VHWiG3-2" value="카메라(사진 넣는기능)" style="whiteSpace=wrap;html=1;rounded=1;" vertex="1" parent="1">
          <mxGeometry x="170" y="-190" width="150" height="80" as="geometry" />
        </mxCell>
        <mxCell id="1bsByWwCVij_k4VHWiG3-4" value="재료 리스트&amp;nbsp;" style="whiteSpace=wrap;html=1;rounded=1;" vertex="1" parent="1">
          <mxGeometry x="180" y="-5" width="150" height="70" as="geometry" />
        </mxCell>
        <mxCell id="1bsByWwCVij_k4VHWiG3-6" value="레시피 추천" style="whiteSpace=wrap;html=1;rounded=1;" vertex="1" parent="1">
          <mxGeometry x="180" y="230" width="150" height="70" as="geometry" />
        </mxCell>
        <mxCell id="1bsByWwCVij_k4VHWiG3-17" value="" style="edgeStyle=orthogonalEdgeStyle;rounded=0;orthogonalLoop=1;jettySize=auto;html=1;" edge="1" parent="1" source="1bsByWwCVij_k4VHWiG3-10" target="1bsByWwCVij_k4VHWiG3-16">
          <mxGeometry relative="1" as="geometry" />
        </mxCell>
        <mxCell id="1bsByWwCVij_k4VHWiG3-10" value="텍스트 인식" style="whiteSpace=wrap;html=1;rounded=1;" vertex="1" parent="1">
          <mxGeometry x="360" y="-190" width="150" height="80" as="geometry" />
        </mxCell>
        <mxCell id="1bsByWwCVij_k4VHWiG3-19" value="" style="edgeStyle=orthogonalEdgeStyle;rounded=0;orthogonalLoop=1;jettySize=auto;html=1;" edge="1" parent="1" source="1bsByWwCVij_k4VHWiG3-16" target="1bsByWwCVij_k4VHWiG3-18">
          <mxGeometry relative="1" as="geometry" />
        </mxCell>
        <mxCell id="1bsByWwCVij_k4VHWiG3-16" value="음식과&amp;nbsp;&lt;br&gt;비음식 구분" style="rhombus;whiteSpace=wrap;html=1;rounded=1;" vertex="1" parent="1">
          <mxGeometry x="560" y="-190" width="80" height="80" as="geometry" />
        </mxCell>
        <mxCell id="1bsByWwCVij_k4VHWiG3-21" value="" style="edgeStyle=orthogonalEdgeStyle;rounded=0;orthogonalLoop=1;jettySize=auto;html=1;" edge="1" parent="1" source="1bsByWwCVij_k4VHWiG3-18" target="1bsByWwCVij_k4VHWiG3-20">
          <mxGeometry relative="1" as="geometry" />
        </mxCell>
        <mxCell id="1bsByWwCVij_k4VHWiG3-18" value="해당열과 개수로 판단" style="whiteSpace=wrap;html=1;rounded=1;" vertex="1" parent="1">
          <mxGeometry x="690" y="-180" width="120" height="60" as="geometry" />
        </mxCell>
        <mxCell id="1bsByWwCVij_k4VHWiG3-20" value="DB에 데이터 저장" style="whiteSpace=wrap;html=1;rounded=1;" vertex="1" parent="1">
          <mxGeometry x="890" y="-180" width="120" height="60" as="geometry" />
        </mxCell>
      </root>
    </mxGraphModel>
  </diagram>
</mxfile>
